<svg xmlns="http://www.w3.org/2000/svg" xmlns:xlink="http://www.w3.org/1999/xlink" width="214.567" height="1046.393" viewBox="0 0 214.567 1046.393"><defs><style>.a{opacity:0.85;fill:url(#a);}.b{fill:#fcffe8;}.c{fill:url(#d);}.d{fill:#f1f9ff;}.e{filter:url(#g);}.f{filter:url(#e);}.g{filter:url(#b);}</style><linearGradient id="a" x1="0.5" y1="0.452" x2="0.5" y2="1" gradientUnits="objectBoundingBox"><stop offset="0" stop-color="#01baef"/><stop offset="1" stop-color="#015d78"/></linearGradient><filter id="b" x="0" y="0" width="210.567" height="1046.393" filterUnits="userSpaceOnUse"><feOffset dx="-10" dy="3" input="SourceAlpha"/><feGaussianBlur stdDeviation="3" result="c"/><feFlood flood-opacity="0.161"/><feComposite operator="in" in2="c"/><feComposite in="SourceGraphic"/></filter><linearGradient id="d" x1="0.5" x2="0.5" y2="1" gradientUnits="objectBoundingBox"><stop offset="0" stop-color="#fff"/><stop offset="1" stop-color="#380236"/></linearGradient><filter id="e" x="36.6" y="0" width="176.967" height="1046.393" filterUnits="userSpaceOnUse"><feOffset dx="-6" dy="3" input="SourceAlpha"/><feGaussianBlur stdDeviation="3" result="f"/><feFlood flood-opacity="0.161"/><feComposite operator="in" in2="f"/><feComposite in="SourceGraphic"/></filter><filter id="g" x="67.748" y="0" width="146.819" height="1046.393" filterUnits="userSpaceOnUse"><feOffset dx="-4" dy="3" input="SourceAlpha"/><feGaussianBlur stdDeviation="3" result="h"/><feFlood flood-opacity="0.161"/><feComposite operator="in" in2="h"/><feComposite in="SourceGraphic"/></filter></defs><g transform="translate(18.748 6)"><path class="a" d="M0,0H191V1027H0Z" transform="translate(0 1.393)"/><g class="g" transform="matrix(1, 0, 0, 1, -18.75, -6)"><path class="b" d="M-1164.323,1009s129.764-396.346,123.731-471.1-184.7-214.807-127.24-336.819-34.916-220.478-34.916-220.478h189.315L-1011.181,1009Z" transform="translate(1221.75 25.39)"/></g><g class="f" transform="matrix(1, 0, 0, 1, -18.75, -6)"><path class="c" d="M-1170.862,1009s107.681-396.346,102.675-471.1S-1221.453,323.1-1173.774,201.085s-28.974-220.478-28.974-220.478h157.1L-1043.781,1009Z" transform="translate(1254.35 25.39)"/></g><g class="e" transform="matrix(1, 0, 0, 1, -18.75, -6)"><path class="d" d="M-1176.91,1009s87.259-396.346,83.2-471.1-124.2-214.807-85.562-336.819-23.479-220.478-23.479-220.478h127.3L-1073.929,1009Z" transform="translate(1283.5 25.39)"/></g></g></svg>